<svg width="115" height="115" viewBox="0 0 115 115" fill="none" xmlns="http://www.w3.org/2000/svg">
<path d="M62.4829 113.002L101.491 90.5822C106.776 87.5295 108.235 84.6269 108.235 78.8719V32.7812C108.235 24.6741 101.088 22.5222 95.4004 25.7751L86.6425 30.7795V20.2202C86.6425 12.113 79.4953 9.91109 73.8077 13.164L66.1572 17.5678V8.45981C66.1572 0.352671 59.0603 -1.79922 53.3727 1.45364L13.6099 24.3238C8.52629 27.2263 6.76465 30.279 6.76465 36.1342V80.9737C6.76465 90.1318 12.7039 93.1344 20.4551 88.6805L27.25 84.7771V92.684C27.25 101.842 33.1389 104.845 40.8902 100.391L48.7924 95.8368V105.245C48.7924 114.403 54.7316 117.406 62.4829 113.002ZM16.4788 78.8218V36.3344C16.4788 34.3827 17.0325 33.7321 18.5425 32.8313L55.6376 11.5125C56.0906 11.2623 56.443 11.5125 56.443 11.9629V23.1728L34.0449 36.0341C28.9613 38.9867 27.25 41.9894 27.25 47.8445V73.4671L17.2338 79.2222C16.7808 79.4724 16.4788 79.2722 16.4788 78.8218ZM48.7924 60.4056V84.5769L37.7192 90.9325C37.2662 91.1827 36.9642 91.0326 36.9642 90.5321V48.0447C36.9642 46.093 37.4676 45.4424 38.9775 44.5416L76.0727 23.2228C76.576 22.9726 76.9283 23.2228 76.9283 23.6732V36.3844L55.6376 48.5952C50.554 51.5478 48.7924 54.6005 48.7924 60.4056ZM60.5702 57.1027L97.6654 35.8339C98.1687 35.5337 98.521 35.7839 98.521 36.2343V78.5215C98.521 80.3231 98.1184 81.1238 96.5077 82.0747L59.3119 103.544C58.8589 103.794 58.5066 103.594 58.5066 103.093V60.6558C58.5066 58.654 59.0603 58.0035 60.5702 57.1027Z" fill="white"/>
</svg>
