<svg width="40" height="22" viewBox="0 0 40 22" fill="none" xmlns="http://www.w3.org/2000/svg">
<rect width="40" height="22" rx="11" fill="#3772E7"/>
<path d="M13.022 16H18.9507V14.9717H14.3296L14.6089 15.1621V14.6353L14.3232 15.1621L16.6909 12.7183C17.2453 12.147 17.6748 11.6667 17.9795 11.2773C18.2842 10.8838 18.4958 10.5262 18.6143 10.2046C18.737 9.88298 18.7983 9.54867 18.7983 9.20166V9.18896C18.7983 8.69385 18.6735 8.25374 18.4238 7.86865C18.1784 7.48356 17.842 7.18099 17.4146 6.96094C16.9871 6.73665 16.5068 6.62451 15.9736 6.62451C15.3896 6.62451 14.8713 6.74512 14.4185 6.98633C13.9657 7.22331 13.6102 7.55339 13.3521 7.97656C13.0939 8.39551 12.9627 8.87581 12.9585 9.41748L12.9712 9.42383L14.063 9.43018L14.0693 9.41748C14.0693 9.05778 14.1455 8.74463 14.2979 8.47803C14.4502 8.20719 14.6639 7.99772 14.939 7.84961C15.214 7.69727 15.5335 7.62109 15.8975 7.62109C16.2572 7.62109 16.5661 7.69515 16.8242 7.84326C17.0824 7.99137 17.2812 8.19238 17.4209 8.44629C17.5605 8.7002 17.6304 8.98796 17.6304 9.30957V9.32227C17.6304 9.58887 17.5859 9.83431 17.4971 10.0586C17.4082 10.2829 17.2537 10.5347 17.0337 10.814C16.8136 11.089 16.509 11.4382 16.1196 11.8613L13.022 15.2129V16ZM21.2485 16H22.4482L26.5234 7.90039V6.84033H20.4614V7.8623H25.3618V7.95117L21.2485 16Z" fill="white"/>
</svg>
